<svg width="114" height="25" viewBox="0 0 114 25" fill="none" xmlns="http://www.w3.org/2000/svg">
<path d="M0.144 19L7.68 1.96H9.528L17.088 19H14.76L12.552 14.032H4.608L2.448 19H0.144ZM8.568 4.984L5.496 12.016H11.664L8.568 4.984ZM19.1706 19V7H21.2346V8.848C22.0506 7.456 23.3226 6.76 25.0506 6.76C26.4106 6.76 27.5066 7.2 28.3386 8.08C29.1706 8.96 29.5866 10.136 29.5866 11.608V19H27.5466V11.92C27.5466 10.912 27.2906 10.12 26.7786 9.544C26.2666 8.952 25.5786 8.656 24.7146 8.656C23.7226 8.656 22.8906 9.048 22.2186 9.832C21.5626 10.616 21.2346 11.688 21.2346 13.048V19H19.1706ZM38.2474 19.24C36.5834 19.24 35.1834 18.632 34.0474 17.416C32.9274 16.2 32.3674 14.728 32.3674 13C32.3674 11.272 32.9274 9.8 34.0474 8.584C35.1834 7.368 36.5834 6.76 38.2474 6.76C39.1274 6.76 39.9434 6.96 40.6954 7.36C41.4634 7.744 42.0554 8.24 42.4714 8.848V7H44.5354V19H42.4714V17.152C42.0554 17.76 41.4634 18.264 40.6954 18.664C39.9434 19.048 39.1274 19.24 38.2474 19.24ZM38.5594 17.344C39.7434 17.344 40.7194 16.928 41.4874 16.096C42.2554 15.264 42.6394 14.232 42.6394 13C42.6394 11.768 42.2554 10.736 41.4874 9.904C40.7194 9.072 39.7434 8.656 38.5594 8.656C37.3594 8.656 36.3754 9.072 35.6074 9.904C34.8394 10.736 34.4554 11.768 34.4554 13C34.4554 14.232 34.8394 15.264 35.6074 16.096C36.3754 16.928 37.3594 17.344 38.5594 17.344ZM48.4206 19V0.999999H50.4846V19H48.4206ZM57.5891 24.016H55.2851L57.9011 18.376L52.6451 7H54.9251L59.0531 16.12L63.1571 7H65.4611L57.5891 24.016ZM72.1781 19.12C71.0741 19.12 70.1861 18.808 69.5141 18.184C68.8421 17.56 68.5061 16.648 68.5061 15.448V8.896H65.9621V7H68.5061V3.664H70.5701V7H74.0261V8.896H70.5701V15.184C70.5701 15.936 70.7301 16.464 71.0501 16.768C71.3701 17.072 71.8741 17.224 72.5621 17.224C73.1701 17.224 73.6581 17.144 74.0261 16.984V18.832C73.4501 19.024 72.8341 19.12 72.1781 19.12ZM78.7508 3.376C78.4788 3.648 78.1348 3.784 77.7188 3.784C77.3028 3.784 76.9508 3.648 76.6628 3.376C76.3748 3.088 76.2308 2.736 76.2308 2.32C76.2308 1.92 76.3748 1.576 76.6628 1.288C76.9508 0.999999 77.3028 0.855999 77.7188 0.855999C78.1348 0.855999 78.4788 0.999999 78.7508 1.288C79.0228 1.576 79.1588 1.92 79.1588 2.32C79.1588 2.736 79.0228 3.088 78.7508 3.376ZM76.6628 19V7H78.7268V19H76.6628ZM87.9913 19.24C86.1833 19.24 84.6793 18.64 83.4793 17.44C82.2953 16.24 81.7033 14.76 81.7033 13C81.7033 11.24 82.2953 9.76 83.4793 8.56C84.6793 7.36 86.1833 6.76 87.9913 6.76C89.2073 6.76 90.2953 7.048 91.2553 7.624C92.2313 8.2 92.9913 8.984 93.5353 9.976L91.7353 10.984C91.3833 10.28 90.8793 9.72 90.2233 9.304C89.5833 8.888 88.8393 8.68 87.9913 8.68C86.7593 8.68 85.7513 9.096 84.9673 9.928C84.1833 10.76 83.7913 11.784 83.7913 13C83.7913 14.216 84.1833 15.24 84.9673 16.072C85.7513 16.904 86.7593 17.32 87.9913 17.32C88.8393 17.32 89.5833 17.112 90.2233 16.696C90.8793 16.28 91.3833 15.72 91.7353 15.016L93.5353 16.024C92.9913 17.016 92.2313 17.8 91.2553 18.376C90.2953 18.952 89.2073 19.24 87.9913 19.24ZM101.538 19.24C99.7296 19.24 98.2256 18.64 97.0256 17.44C95.8416 16.224 95.2496 14.744 95.2496 13C95.2496 11.256 95.8416 9.784 97.0256 8.584C98.2256 7.368 99.7296 6.76 101.538 6.76C103.33 6.76 104.818 7.368 106.002 8.584C107.202 9.784 107.802 11.256 107.802 13C107.802 14.744 107.202 16.224 106.002 17.44C104.818 18.64 103.33 19.24 101.538 19.24ZM98.5136 16.072C99.2976 16.904 100.306 17.32 101.538 17.32C102.77 17.32 103.77 16.904 104.538 16.072C105.306 15.24 105.69 14.216 105.69 13C105.69 11.784 105.306 10.76 104.538 9.928C103.77 9.096 102.77 8.68 101.538 8.68C100.306 8.68 99.2976 9.096 98.5136 9.928C97.7456 10.76 97.3616 11.784 97.3616 13C97.3616 14.216 97.7456 15.24 98.5136 16.072ZM112.858 18.664C112.522 19.016 112.106 19.192 111.61 19.192C111.114 19.192 110.69 19.016 110.338 18.664C110.002 18.312 109.834 17.888 109.834 17.392C109.834 16.912 110.01 16.496 110.362 16.144C110.714 15.776 111.13 15.592 111.61 15.592C112.09 15.592 112.506 15.776 112.858 16.144C113.21 16.496 113.386 16.912 113.386 17.392C113.386 17.888 113.21 18.312 112.858 18.664Z" fill="#00120B"/>
</svg>
