<svg width="30" height="30" viewBox="0 0 30 30" fill="none" xmlns="http://www.w3.org/2000/svg">
<path opacity="0.4" fill-rule="evenodd" clip-rule="evenodd" d="M23.1629 15.6629C23.529 15.2968 23.529 14.7032 23.1629 14.3371L18.1629 9.33709C17.7968 8.97097 17.2032 8.97097 16.8371 9.33709C16.471 9.7032 16.471 10.2968 16.8371 10.6629L20.2367 14.0625L7.5 14.0625C6.98223 14.0625 6.5625 14.4822 6.5625 15C6.5625 15.5178 6.98223 15.9375 7.5 15.9375L20.2367 15.9375L16.8371 19.3371C16.471 19.7032 16.471 20.2968 16.8371 20.6629C17.2032 21.029 17.7968 21.029 18.1629 20.6629L23.1629 15.6629Z" fill="#35605A"/>
<path d="M23.1629 14.3371C23.529 14.7032 23.529 15.2968 23.1629 15.6629L18.1629 20.6629C17.7968 21.029 17.2032 21.029 16.8371 20.6629C16.471 20.2968 16.471 19.7032 16.8371 19.3371L21.2134 15.0032L16.8371 10.6629C16.471 10.2968 16.471 9.7032 16.8371 9.33709C17.2032 8.97097 17.7968 8.97097 18.1629 9.33709L23.1629 14.3371Z" fill="#35605A"/>
</svg>
