<svg width="32" height="32" viewBox="0 0 32 32" fill="none" xmlns="http://www.w3.org/2000/svg">
<path d="M17.5899 28.9881H15.288C15.288 25.6422 12.5798 22.9295 9.23966 22.9295C5.89947 22.9295 3.19105 25.6422 3.19105 28.9881H0.888916C0.888916 24.3686 4.62747 20.6236 9.23966 20.6236C13.8518 20.6236 17.5899 24.3686 17.5899 28.9881Z" fill="#49C6E5"/>
<path d="M21.8121 13.6965L23.0519 15.6391C20.2375 17.4412 19.4143 21.1878 21.2137 24.0061C23.013 26.8244 26.7529 27.6502 29.5676 25.8497L30.8076 27.7926C26.9218 30.2815 21.7579 29.143 19.274 25.2508C16.79 21.3586 17.9266 16.1854 21.8121 13.6965Z" fill="#49C6E5"/>
<path d="M14.5333 3.55554L13.2935 5.49821C16.1079 7.30027 16.9311 11.0469 15.132 13.8651C13.3329 16.6834 9.59252 17.5093 6.7781 15.7072L5.53809 17.6504C9.42387 20.1393 14.5877 19.0007 17.0717 15.1085C19.5557 11.2163 18.4191 6.04444 14.5333 3.55554Z" fill="#49C6E5"/>
</svg>
