<svg width="27" height="27" viewBox="0 0 27 27" fill="none" xmlns="http://www.w3.org/2000/svg">
<path d="M13.5 23.625C15.0582 23.625 16.3837 22.6858 16.875 21.375H10.125C10.6163 22.6858 11.9418 23.625 13.5 23.625Z" fill="#35605A"/>
<path opacity="0.4" fill-rule="evenodd" clip-rule="evenodd" d="M20.4088 11.0642C20.002 11.1851 19.5711 11.25 19.125 11.25C16.6397 11.25 14.625 9.23528 14.625 6.75C14.625 6.40116 14.6647 6.06158 14.7398 5.73555C14.3365 5.66284 13.9221 5.625 13.5 5.625C9.86731 5.625 6.81055 8.42721 6.38959 12.1433L6.0016 15.5683C5.9052 16.4194 5.56027 17.2202 5.01243 17.8651C3.84985 19.2334 4.79341 21.375 6.5589 21.375H20.4411C22.2066 21.375 23.1502 19.2334 21.9876 17.8651C21.4397 17.2202 21.0948 16.4194 20.9984 15.5683L20.6104 12.1433C20.5686 11.774 20.5007 11.4136 20.4088 11.0642Z" fill="#35605A"/>
<circle cx="19.125" cy="6.75" r="3.375" fill="#00BD9D"/>
</svg>
