<svg width="23" height="23" viewBox="0 0 23 23" fill="none" xmlns="http://www.w3.org/2000/svg">
<path opacity="0.4" d="M6.7971 22.75H16.2029C18.8002 22.75 20.9058 20.7407 20.9058 18.2621V12.7747C20.9058 11.9779 21.2375 11.2138 21.8278 10.6504C23.1957 9.34507 23.0179 7.1823 21.4534 6.09653L14.2661 1.10837C12.617 -0.0361231 10.383 -0.0361232 8.73389 1.10837L1.54657 6.09653C-0.0178968 7.1823 -0.195719 9.34507 1.17215 10.6504C1.76253 11.2138 2.09421 11.9779 2.09421 12.7747V18.2621C2.09421 20.7407 4.19977 22.75 6.7971 22.75Z" fill="#00BD9D"/>
<path fill-rule="evenodd" clip-rule="evenodd" d="M6.22323 15.6707C6.40522 15.2417 6.90052 15.0415 7.3295 15.2235C9.06486 15.9597 10.3325 16.2845 11.5434 16.2814C12.7535 16.2784 13.9905 15.9479 15.6659 15.2254C16.0938 15.0409 16.5902 15.2382 16.7748 15.6661C16.9593 16.094 16.762 16.5905 16.3341 16.775C14.5628 17.5388 13.0839 17.9651 11.5476 17.9689C10.0121 17.9728 8.50306 17.5544 6.67045 16.777C6.24147 16.595 6.04124 16.0997 6.22323 15.6707Z" fill="#00BD9D"/>
</svg>
