<svg width="32" height="32" viewBox="0 0 32 32" fill="none" xmlns="http://www.w3.org/2000/svg">
<g clip-path="url(#clip0_27_337)">
<path d="M16.0001 28.4444C22.873 28.4444 28.4446 22.8729 28.4446 16C28.4446 9.12711 22.873 3.55554 16.0001 3.55554C9.12723 3.55554 3.55566 9.12711 3.55566 16C3.55566 22.8729 9.12723 28.4444 16.0001 28.4444Z" fill="#49C6E5"/>
<path fill-rule="evenodd" clip-rule="evenodd" d="M16.0001 2.66663C8.63928 2.66663 2.66675 8.63916 2.66675 16C2.66675 23.3608 8.63928 29.3333 16.0001 29.3333C23.3464 29.3333 29.3334 23.3608 29.3334 16C29.3334 8.63916 23.3464 2.66663 16.0001 2.66663ZM24.807 8.81268C26.3978 10.7505 27.3522 13.2234 27.3811 15.8987C27.0051 15.8264 23.2452 15.06 19.4563 15.5372C19.3696 15.3492 19.2973 15.1467 19.2105 14.9443C18.9791 14.3948 18.7188 13.8308 18.4585 13.2957C22.6523 11.5893 24.5612 9.13084 24.807 8.81268ZM16.0001 4.63336C18.8923 4.63336 21.5388 5.71796 23.5489 7.49671C23.3464 7.78593 21.6255 10.0853 17.5764 11.6037C15.7109 8.17639 13.6429 5.37089 13.3247 4.93705C14.1779 4.73459 15.0746 4.63336 16.0001 4.63336ZM11.1555 5.70351C11.4592 6.10841 13.4838 8.92839 15.3782 12.2834C10.0565 13.7006 5.35656 13.6717 4.85041 13.6717C5.58792 10.1431 7.97405 7.20748 11.1555 5.70351ZM4.60456 16.0144C4.60456 15.8987 4.60456 15.7831 4.60456 15.6673C5.09625 15.6818 10.6205 15.7541 16.3038 14.0477C16.6364 14.684 16.9401 15.3347 17.2293 15.9855C17.0847 16.0289 16.9256 16.0723 16.781 16.1156C10.9097 18.0101 7.78605 23.1872 7.52576 23.6211C5.71808 21.6109 4.60456 18.9356 4.60456 16.0144ZM16.0001 27.3955C13.3681 27.3955 10.9386 26.4989 9.01525 24.9949C9.21773 24.5755 11.5315 20.1214 17.9523 17.8799C17.9813 17.8655 17.9957 17.8655 18.0247 17.851C19.6299 22.0014 20.2806 25.4866 20.4542 26.4844C19.0803 27.0773 17.5764 27.3955 16.0001 27.3955ZM22.3486 25.4432C22.2329 24.7491 21.6255 21.4229 20.136 17.3304C23.708 16.7664 26.8316 17.6919 27.2221 17.8221C26.7304 20.9891 24.9082 23.7223 22.3486 25.4432Z" fill="#AFEFFF"/>
</g>
<defs>
<clipPath id="clip0_27_337">
<rect width="32" height="32" fill="white"/>
</clipPath>
</defs>
</svg>
