<svg width="30" height="30" viewBox="0 0 30 30" fill="none" xmlns="http://www.w3.org/2000/svg">
<g clip-path="url(#clip0_27_942)">
<path d="M29.1481 10C28.8417 9.13205 28.4556 8.2943 27.9948 7.49747L25.0004 9.22646L23.6637 9.99912C23.6639 9.99971 23.6639 10.0003 23.6637 10.0009H23.6598L20 12.1127L19.3315 12.4986L15 14.9998H25.0004C25.0036 16.7551 24.5428 18.48 23.6646 19.9998C23.6647 20.0004 23.6647 20.001 23.6646 20.0016C22.7871 21.5227 21.5241 22.7857 20.0029 23.6633C18.4818 24.5408 16.7561 25.0019 15 25V29.9998C17.3991 29.9975 19.7627 29.4204 21.8928 28.3168C24.023 27.2131 25.8576 25.6151 27.2431 23.6566C28.6286 21.698 29.5246 19.436 29.8561 17.0599C30.1875 14.6838 29.9447 12.2629 29.1481 10Z" fill="#49C6E5"/>
<path d="M4.99953 14.9998C4.99646 13.2446 5.45721 11.5198 6.33513 10C6.33509 9.99942 6.33509 9.99882 6.33513 9.99823C7.21268 8.47702 8.4757 7.214 9.99692 6.33646C11.5181 5.45893 13.2438 4.99788 15 4.99978V1.27137e-06C12.3662 -0.00108297 9.77853 0.691348 7.49726 2.00766C5.21599 3.32397 3.32152 5.21775 2.00439 7.49854C0.687253 9.77934 -0.00611342 12.3667 -0.00598143 15.0005C-0.00584943 17.6343 0.687777 20.2217 2.00514 22.5023L4.99953 20.7733L6.33624 20.0007C6.33619 20.0001 6.33619 19.9995 6.33624 19.9989H6.34043L10.0006 17.8858L10.6691 17.4999L15 14.9998H4.99953Z" fill="#00BD9D"/>
</g>
<defs>
<clipPath id="clip0_27_942">
<rect width="30" height="30" fill="white"/>
</clipPath>
</defs>
</svg>
