<svg width="27" height="27" viewBox="0 0 27 27" fill="none" xmlns="http://www.w3.org/2000/svg">
<path d="M15.6743 10.265C15.3815 10.5579 15.3815 11.0328 15.6743 11.3257C15.9672 11.6185 16.4421 11.6185 16.735 11.3257L15.6743 10.265ZM21.6803 6.38033C21.9732 6.08744 21.9732 5.61256 21.6803 5.31967C21.3874 5.02678 20.9126 5.02678 20.6197 5.31967L21.6803 6.38033ZM5.31967 20.6197C5.02678 20.9126 5.02678 21.3874 5.31967 21.6803C5.61256 21.9732 6.08744 21.9732 6.38033 21.6803L5.31967 20.6197ZM11.3256 16.735C11.6185 16.4421 11.6185 15.9672 11.3256 15.6744C11.0328 15.3815 10.5579 15.3815 10.265 15.6744L11.3256 16.735ZM16.735 15.6743C16.4421 15.3815 15.9672 15.3815 15.6743 15.6743C15.3815 15.9672 15.3815 16.4421 15.6743 16.735L16.735 15.6743ZM20.6197 21.6803C20.9126 21.9732 21.3874 21.9732 21.6803 21.6803C21.9732 21.3874 21.9732 20.9126 21.6803 20.6197L20.6197 21.6803ZM6.38033 5.31967C6.08744 5.02678 5.61256 5.02678 5.31967 5.31967C5.02678 5.61256 5.02678 6.08744 5.31967 6.38033L6.38033 5.31967ZM10.265 11.3256C10.5579 11.6185 11.0328 11.6185 11.3256 11.3256C11.6185 11.0328 11.6185 10.5579 11.3256 10.265L10.265 11.3256ZM9.675 4.6875H17.325V3.1875H9.675V4.6875ZM22.3125 9.675V17.325H23.8125V9.675H22.3125ZM17.325 22.3125H9.675V23.8125H17.325V22.3125ZM4.6875 17.325V9.675H3.1875V17.325H4.6875ZM9.675 22.3125C6.92048 22.3125 4.6875 20.0795 4.6875 17.325H3.1875C3.1875 20.9079 6.09205 23.8125 9.675 23.8125V22.3125ZM22.3125 17.325C22.3125 20.0795 20.0795 22.3125 17.325 22.3125V23.8125C20.9079 23.8125 23.8125 20.9079 23.8125 17.325H22.3125ZM17.325 4.6875C20.0795 4.6875 22.3125 6.92048 22.3125 9.675H23.8125C23.8125 6.09205 20.9079 3.1875 17.325 3.1875V4.6875ZM9.675 3.1875C6.09205 3.1875 3.1875 6.09205 3.1875 9.675H4.6875C4.6875 6.92048 6.92048 4.6875 9.675 4.6875V3.1875ZM16.575 13.5C16.575 15.1983 15.1983 16.575 13.5 16.575V18.075C16.0267 18.075 18.075 16.0267 18.075 13.5H16.575ZM13.5 16.575C11.8017 16.575 10.425 15.1983 10.425 13.5H8.925C8.925 16.0267 10.9733 18.075 13.5 18.075V16.575ZM10.425 13.5C10.425 11.8017 11.8017 10.425 13.5 10.425V8.925C10.9733 8.925 8.925 10.9733 8.925 13.5H10.425ZM13.5 10.425C15.1983 10.425 16.575 11.8017 16.575 13.5H18.075C18.075 10.9733 16.0267 8.925 13.5 8.925V10.425ZM16.735 11.3257L21.6803 6.38033L20.6197 5.31967L15.6743 10.265L16.735 11.3257ZM6.38033 21.6803L11.3256 16.735L10.265 15.6744L5.31967 20.6197L6.38033 21.6803ZM15.6743 16.735L20.6197 21.6803L21.6803 20.6197L16.735 15.6743L15.6743 16.735ZM5.31967 6.38033L10.265 11.3256L11.3256 10.265L6.38033 5.31967L5.31967 6.38033Z" fill="#6B818C"/>
</svg>
