<svg width="32" height="32" viewBox="0 0 32 32" fill="none" xmlns="http://www.w3.org/2000/svg">
<path d="M10.6667 24.6666C10.6667 26.5076 9.17428 28 7.33333 28C5.49238 28 4 26.5076 4 24.6666C4 22.8257 5.49238 21.3333 7.33333 21.3333C9.17428 21.3333 10.6667 22.8257 10.6667 24.6666Z" fill="#49C6E5"/>
<g opacity="0.4">
<path fill-rule="evenodd" clip-rule="evenodd" d="M3 14.6667C3 14.1144 3.44772 13.6667 4 13.6667H5.33333C12.513 13.6667 18.3333 19.487 18.3333 26.6667V28C18.3333 28.5523 17.8856 29 17.3333 29C16.781 29 16.3333 28.5523 16.3333 28V26.6667C16.3333 20.5915 11.4085 15.6667 5.33333 15.6667H4C3.44772 15.6667 3 15.219 3 14.6667Z" fill="#49C6E5"/>
<path fill-rule="evenodd" clip-rule="evenodd" d="M3 9.33333C3 8.78105 3.44772 8.33333 4 8.33333H5.33333C15.4586 8.33333 23.6667 16.5414 23.6667 26.6667V28C23.6667 28.5523 23.219 29 22.6667 29C22.1144 29 21.6667 28.5523 21.6667 28V26.6667C21.6667 17.646 14.354 10.3333 5.33333 10.3333H4C3.44772 10.3333 3 9.88562 3 9.33333Z" fill="#49C6E5"/>
<path fill-rule="evenodd" clip-rule="evenodd" d="M3 4C3 3.44772 3.44772 3 4 3H5.33333C18.4041 3 29 13.5959 29 26.6667V28C29 28.5523 28.5523 29 28 29C27.4477 29 27 28.5523 27 28V26.6667C27 14.7005 17.2995 5 5.33333 5H4C3.44772 5 3 4.55228 3 4Z" fill="#49C6E5"/>
</g>
</svg>
