<svg width="27" height="27" viewBox="0 0 27 27" fill="none" xmlns="http://www.w3.org/2000/svg">
<path d="M5.03033 11.7803C5.32322 11.4874 5.32322 11.0126 5.03033 10.7197C4.73744 10.4268 4.26256 10.4268 3.96967 10.7197L5.03033 11.7803ZM3.96967 16.2803C4.26256 16.5732 4.73744 16.5732 5.03033 16.2803C5.32322 15.9874 5.32322 15.5126 5.03033 15.2197L3.96967 16.2803ZM3.96967 10.7197L2.42678 12.2626L3.48744 13.3232L5.03033 11.7803L3.96967 10.7197ZM2.42678 14.7374L3.96967 16.2803L5.03033 15.2197L3.48744 13.6768L2.42678 14.7374ZM2.42678 12.2626C1.74336 12.946 1.74336 14.054 2.42678 14.7374L3.48744 13.6768C3.38981 13.5791 3.38981 13.4209 3.48744 13.3232L2.42678 12.2626Z" fill="#6B818C"/>
<path d="M3.375 12.75C2.96079 12.75 2.625 13.0858 2.625 13.5C2.625 13.9142 2.96079 14.25 3.375 14.25V12.75ZM12.375 14.25C12.7892 14.25 13.125 13.9142 13.125 13.5C13.125 13.0858 12.7892 12.75 12.375 12.75V14.25ZM6 9C6 9.41421 6.33579 9.75 6.75 9.75C7.16421 9.75 7.5 9.41421 7.5 9H6ZM7.5 18C7.5 17.5858 7.16421 17.25 6.75 17.25C6.33579 17.25 6 17.5858 6 18L7.5 18ZM3.375 14.25H12.375V12.75H3.375V14.25ZM16.5 18V9H15L15 18H16.5ZM24 9V18H25.5V9H24ZM20.25 5.25C22.3211 5.25 24 6.92893 24 9H25.5C25.5 6.1005 23.1495 3.75 20.25 3.75L20.25 5.25ZM16.5 9C16.5 6.92893 18.1789 5.25 20.25 5.25L20.25 3.75C17.3505 3.75 15 6.1005 15 9H16.5ZM20.25 21.75C18.1789 21.75 16.5 20.0711 16.5 18H15C15 20.8995 17.3505 23.25 20.25 23.25V21.75ZM20.25 23.25C23.1495 23.25 25.5 20.8995 25.5 18H24C24 20.0711 22.3211 21.75 20.25 21.75V23.25ZM20.25 21.75H11.25V23.25H20.25V21.75ZM11.25 5.25H20.25L20.25 3.75H11.25V5.25ZM7.5 9C7.5 6.92893 9.17893 5.25 11.25 5.25V3.75C8.3505 3.75 6 6.1005 6 9H7.5ZM11.25 21.75C9.17893 21.75 7.5 20.0711 7.5 18L6 18C6 20.8995 8.3505 23.25 11.25 23.25V21.75Z" fill="#6B818C"/>
</svg>
