<svg width="27" height="27" viewBox="0 0 27 27" fill="none" xmlns="http://www.w3.org/2000/svg">
<path d="M13.5 7.875V7.125C13.0858 7.125 12.75 7.46079 12.75 7.875H13.5ZM13.5 16.875H12.75C12.75 17.2892 13.0858 17.625 13.5 17.625V16.875ZM9 3H18V1.5H9V3ZM18 24H9V25.5H18V24ZM7.5 22.5V4.5H6V22.5H7.5ZM9 24C8.17157 24 7.5 23.3284 7.5 22.5H6C6 24.1569 7.34315 25.5 9 25.5V24ZM19.5 22.5C19.5 23.3284 18.8284 24 18 24V25.5C19.6569 25.5 21 24.1569 21 22.5H19.5ZM18 3C18.8284 3 19.5 3.67157 19.5 4.5H21C21 2.84315 19.6569 1.5 18 1.5V3ZM9 1.5C7.34315 1.5 6 2.84315 6 4.5H7.5C7.5 3.67157 8.17157 3 9 3V1.5ZM13.5 8.625H20.25V7.125H13.5V8.625ZM21.75 10.125V14.625H23.25V10.125H21.75ZM20.25 16.125H13.5V17.625H20.25V16.125ZM14.25 16.875V7.875H12.75V16.875H14.25ZM21.75 14.625C21.75 15.4534 21.0784 16.125 20.25 16.125V17.625C21.9069 17.625 23.25 16.2819 23.25 14.625H21.75ZM20.25 8.625C21.0784 8.625 21.75 9.29657 21.75 10.125H23.25C23.25 8.46815 21.9069 7.125 20.25 7.125V8.625ZM21 7.875V4.5H19.5V7.875H21ZM21 22.5V16.875H19.5V22.5H21Z" fill="#6B818C"/>
<path d="M14.625 21.375C14.625 21.9963 14.1213 22.5 13.5 22.5C12.8787 22.5 12.375 21.9963 12.375 21.375C12.375 20.7537 12.8787 20.25 13.5 20.25C14.1213 20.25 14.625 20.7537 14.625 21.375Z" fill="#6B818C"/>
<path d="M22.5 11.25L13.5 11.25" stroke="#6B818C" stroke-width="1.5" stroke-linecap="round" stroke-linejoin="round"/>
</svg>
