<svg width="27" height="27" viewBox="0 0 27 27" fill="none" xmlns="http://www.w3.org/2000/svg">
<path d="M9 4.125H22.5V2.625H9V4.125ZM1.5 13.5C1.5 15.7782 3.34683 17.625 5.625 17.625V16.125C4.17525 16.125 3 14.9497 3 13.5H1.5ZM5.625 9.375C3.34683 9.375 1.5 11.2218 1.5 13.5H3C3 12.0503 4.17525 10.875 5.625 10.875V9.375ZM19.5 13.5C19.5 15.7782 21.3468 17.625 23.625 17.625V16.125C22.1753 16.125 21 14.9497 21 13.5H19.5ZM23.625 9.375C21.3468 9.375 19.5 11.2218 19.5 13.5H21C21 12.0503 22.1753 10.875 23.625 10.875V9.375ZM15.75 18.375C13.4718 18.375 11.625 20.2218 11.625 22.5H13.125C13.125 21.0503 14.3003 19.875 15.75 19.875V18.375ZM19.875 22.5C19.875 20.2218 18.0282 18.375 15.75 18.375V19.875C17.1997 19.875 18.375 21.0503 18.375 22.5H19.875ZM25.5 9V5.625H24V9H25.5ZM24 18V21.375H25.5V18H24ZM20.25 24.375H22.5V22.875H20.25V24.375ZM11.25 22.875H9V24.375H11.25V22.875ZM7.5 9V5.625H6V9H7.5ZM6 18V21.375H7.5V18H6ZM23.625 17.625C23.8321 17.625 24 17.7929 24 18H25.5C25.5 16.9645 24.6605 16.125 23.625 16.125V17.625ZM23.625 10.875C24.6605 10.875 25.5 10.0355 25.5 9H24C24 9.20711 23.8321 9.375 23.625 9.375V10.875ZM5.625 17.625C5.83211 17.625 6 17.7929 6 18H7.5C7.5 16.9645 6.66053 16.125 5.625 16.125V17.625ZM11.625 22.5C11.625 22.7071 11.4571 22.875 11.25 22.875V24.375C12.2855 24.375 13.125 23.5355 13.125 22.5H11.625ZM5.625 10.875C6.66053 10.875 7.5 10.0355 7.5 9H6C6 9.20711 5.83211 9.375 5.625 9.375V10.875ZM18.375 22.5C18.375 23.5355 19.2145 24.375 20.25 24.375V22.875C20.0429 22.875 19.875 22.7071 19.875 22.5H18.375ZM9 22.875C8.17157 22.875 7.5 22.2034 7.5 21.375H6C6 23.0319 7.34315 24.375 9 24.375V22.875ZM24 21.375C24 22.2034 23.3284 22.875 22.5 22.875V24.375C24.1569 24.375 25.5 23.0319 25.5 21.375H24ZM22.5 4.125C23.3284 4.125 24 4.79657 24 5.625H25.5C25.5 3.96815 24.1569 2.625 22.5 2.625V4.125ZM9 2.625C7.34315 2.625 6 3.96815 6 5.625H7.5C7.5 4.79657 8.17157 4.125 9 4.125V2.625Z" fill="#6B818C"/>
</svg>
