<svg width="23" height="23" viewBox="0 0 23 23" fill="none" xmlns="http://www.w3.org/2000/svg">
<path fill-rule="evenodd" clip-rule="evenodd" d="M19.4063 11.0208C19.4063 15.652 15.6521 19.4063 11.0209 19.4063C6.38978 19.4063 2.6355 15.652 2.6355 11.0208C2.6355 6.3897 6.38978 2.63542 11.0209 2.63542C15.6521 2.63542 19.4063 6.3897 19.4063 11.0208ZM11.0209 20.8438C16.446 20.8438 20.8438 16.4459 20.8438 11.0208C20.8438 5.59579 16.446 1.19792 11.0209 1.19792C5.59587 1.19792 1.198 5.59579 1.198 11.0208C1.198 16.4459 5.59587 20.8438 11.0209 20.8438ZM19.675 18.6584C19.3943 18.3777 18.9392 18.3777 18.6585 18.6584C18.3778 18.9391 18.3778 19.3942 18.6585 19.6749L20.5752 21.5916C20.8558 21.8722 21.3109 21.8722 21.5916 21.5916C21.8723 21.3109 21.8723 20.8558 21.5916 20.5751L19.675 18.6584Z" fill="#6B818C"/>
</svg>
