<svg width="27" height="27" viewBox="0 0 27 27" fill="none" xmlns="http://www.w3.org/2000/svg">
<path d="M7.125 23.625C7.125 24.0392 7.46079 24.375 7.875 24.375C8.28921 24.375 8.625 24.0392 8.625 23.625H7.125ZM8.625 18C8.625 17.5858 8.28921 17.25 7.875 17.25C7.46079 17.25 7.125 17.5858 7.125 18H8.625ZM8.625 3.375C8.625 2.96079 8.28921 2.625 7.875 2.625C7.46079 2.625 7.125 2.96079 7.125 3.375H8.625ZM18.375 9C18.375 9.41421 18.7108 9.75 19.125 9.75C19.5392 9.75 19.875 9.41421 19.875 9H18.375ZM19.875 3.375C19.875 2.96079 19.5392 2.625 19.125 2.625C18.7108 2.625 18.375 2.96079 18.375 3.375H19.875ZM18.375 23.625C18.375 24.0392 18.7108 24.375 19.125 24.375C19.5392 24.375 19.875 24.0392 19.875 23.625H18.375ZM8.625 23.625L8.625 18H7.125L7.125 23.625H8.625ZM8.625 5.625V3.375H7.125V5.625H8.625ZM19.875 9V3.375H18.375V9H19.875ZM19.875 23.625V21.375H18.375V23.625H19.875ZM5.25 11.25V9H3.75V11.25H5.25ZM10.5 9V11.25H12V9H10.5ZM10.5 11.25C10.5 12.6997 9.32475 13.875 7.875 13.875V15.375C10.1532 15.375 12 13.5282 12 11.25H10.5ZM7.875 6.375C9.32475 6.375 10.5 7.55025 10.5 9H12C12 6.72183 10.1532 4.875 7.875 4.875V6.375ZM5.25 9C5.25 7.55025 6.42525 6.375 7.875 6.375V4.875C5.59683 4.875 3.75 6.72183 3.75 9H5.25ZM3.75 11.25C3.75 13.5282 5.59683 15.375 7.875 15.375V13.875C6.42525 13.875 5.25 12.6997 5.25 11.25H3.75ZM16.5 18V15.75H15V18H16.5ZM21.75 15.75V18H23.25V15.75H21.75ZM21.75 18C21.75 19.4497 20.5747 20.625 19.125 20.625V22.125C21.4032 22.125 23.25 20.2782 23.25 18H21.75ZM19.125 13.125C20.5747 13.125 21.75 14.3003 21.75 15.75H23.25C23.25 13.4718 21.4032 11.625 19.125 11.625V13.125ZM16.5 15.75C16.5 14.3003 17.6753 13.125 19.125 13.125V11.625C16.8468 11.625 15 13.4718 15 15.75H16.5ZM15 18C15 20.2782 16.8468 22.125 19.125 22.125V20.625C17.6753 20.625 16.5 19.4497 16.5 18H15Z" fill="#6B818C"/>
</svg>
