<svg width="27" height="27" viewBox="0 0 27 27" fill="none" xmlns="http://www.w3.org/2000/svg">
<path d="M20.6129 23.6656L20.3588 24.3713L20.6129 23.6656ZM18.8559 23.0331L19.1099 22.3275L19.1099 22.3275L18.8559 23.0331ZM17.1705 23.0983L16.8627 22.4144H16.8627L17.1705 23.0983ZM14.4233 24.3345L14.1155 23.6506H14.1155L14.4233 24.3345ZM12.5767 24.3345L12.8845 23.6506H12.8845L12.5767 24.3345ZM9.82955 23.0983L10.1373 22.4144H10.1373L9.82955 23.0983ZM8.1441 23.0331L7.89007 22.3275L7.89006 22.3275L8.1441 23.0331ZM6.38712 23.6656L6.64116 24.3713H6.64116L6.38712 23.6656ZM9 7.125C8.58579 7.125 8.25 7.46079 8.25 7.875C8.25 8.28921 8.58579 8.625 9 8.625V7.125ZM13.5 8.625C13.9142 8.625 14.25 8.28921 14.25 7.875C14.25 7.46079 13.9142 7.125 13.5 7.125V8.625ZM9 11.625C8.58579 11.625 8.25 11.9608 8.25 12.375C8.25 12.7892 8.58579 13.125 9 13.125V11.625ZM18 13.125C18.4142 13.125 18.75 12.7892 18.75 12.375C18.75 11.9608 18.4142 11.625 18 11.625V13.125ZM9 16.125C8.58579 16.125 8.25 16.4608 8.25 16.875C8.25 17.2892 8.58579 17.625 9 17.625V16.125ZM18 17.625C18.4142 17.625 18.75 17.2892 18.75 16.875C18.75 16.4608 18.4142 16.125 18 16.125V17.625ZM5.625 3H21.375V1.5H5.625V3ZM22.875 4.5V21.5486H24.375V4.5H22.875ZM20.8669 22.96L19.1099 22.3275L18.6019 23.7388L20.3588 24.3713L20.8669 22.96ZM16.8627 22.4144L14.1155 23.6506L14.7311 25.0184L17.4782 23.7822L16.8627 22.4144ZM12.8845 23.6506L10.1373 22.4144L9.52177 23.7822L12.2689 25.0184L12.8845 23.6506ZM7.89006 22.3275L6.13308 22.96L6.64116 24.3713L8.39815 23.7388L7.89006 22.3275ZM4.125 21.5486V4.5H2.625V21.5486H4.125ZM6.13308 22.96C5.15559 23.3119 4.125 22.5875 4.125 21.5486H2.625C2.625 23.6264 4.68617 25.0751 6.64116 24.3713L6.13308 22.96ZM10.1373 22.4144C9.42784 22.0951 8.62208 22.0639 7.89007 22.3275L8.39814 23.7388C8.76415 23.607 9.16703 23.6226 9.52177 23.7822L10.1373 22.4144ZM14.1155 23.6506C13.7241 23.8267 13.2759 23.8267 12.8845 23.6506L12.2689 25.0184C13.0518 25.3708 13.9482 25.3708 14.7311 25.0184L14.1155 23.6506ZM19.1099 22.3275C18.3779 22.0639 17.5722 22.0951 16.8627 22.4144L17.4782 23.7822C17.833 23.6226 18.2358 23.607 18.6019 23.7388L19.1099 22.3275ZM22.875 21.5486C22.875 22.5875 21.8444 23.3119 20.8669 22.96L20.3588 24.3713C22.3138 25.0751 24.375 23.6264 24.375 21.5486H22.875ZM21.375 3C22.2034 3 22.875 3.67157 22.875 4.5H24.375C24.375 2.84315 23.0319 1.5 21.375 1.5V3ZM5.625 1.5C3.96815 1.5 2.625 2.84315 2.625 4.5H4.125C4.125 3.67157 4.79657 3 5.625 3V1.5ZM9 8.625H13.5V7.125H9V8.625ZM9 13.125H18V11.625H9V13.125ZM9 17.625H18V16.125H9V17.625Z" fill="#6B818C"/>
</svg>
