<svg width="36" height="36" viewBox="0 0 36 36" fill="none" xmlns="http://www.w3.org/2000/svg">
<path opacity="0.4" d="M3 10.5C3 7.18629 5.68629 4.5 9 4.5H27C30.3137 4.5 33 7.18629 33 10.5V25.5C33 28.8137 30.3137 31.5 27 31.5H9C5.68629 31.5 3 28.8137 3 25.5V10.5Z" fill="#49C6E5"/>
<path d="M3 10.5H33V16.5H3V10.5Z" fill="#49C6E5"/>
<path fill-rule="evenodd" clip-rule="evenodd" d="M7.875 25.5C7.875 24.8787 8.37868 24.375 9 24.375H12C12.6213 24.375 13.125 24.8787 13.125 25.5C13.125 26.1213 12.6213 26.625 12 26.625H9C8.37868 26.625 7.875 26.1213 7.875 25.5Z" fill="#49C6E5"/>
</svg>
