<svg width="36" height="36" viewBox="0 0 36 36" fill="none" xmlns="http://www.w3.org/2000/svg">
<path fill-rule="evenodd" clip-rule="evenodd" d="M12.5031 25.5096L8.50623 33.5034C8.22837 34.0591 7.55261 34.2844 6.99689 34.0065C6.44116 33.7286 6.21591 33.0529 6.49377 32.4971L9.98795 25.5088L12.5031 25.5096ZM26.0125 25.5096L29.5062 32.4971C29.7841 33.0529 29.5588 33.7286 29.0031 34.0065C28.4474 34.2844 27.7716 34.0591 27.4938 33.5034L23.4969 25.5096C23.4969 25.5096 25.9175 25.5096 26.0125 25.5096ZM19.125 25.5096V30.0003C19.125 30.6216 18.6213 31.1253 18 31.1253C17.3787 31.1253 16.875 30.6216 16.875 30.0003V25.5096H19.125Z" fill="#49C6E5"/>
<path opacity="0.4" d="M33 22.5C33 24.1569 31.6569 25.5 30 25.5L5.99999 25.5C4.34314 25.5 2.99999 24.1569 2.99999 22.5L2.99999 6C2.99999 4.34314 4.34314 3 5.99999 3L30 3C31.6569 3 33 4.34315 33 6L33 22.5Z" fill="#49C6E5"/>
<path fill-rule="evenodd" clip-rule="evenodd" d="M9.375 10.5C9.375 9.87868 9.87868 9.375 10.5 9.375H25.5C26.1213 9.375 26.625 9.87868 26.625 10.5C26.625 11.1213 26.1213 11.625 25.5 11.625H10.5C9.87868 11.625 9.375 11.1213 9.375 10.5Z" fill="#49C6E5"/>
<path fill-rule="evenodd" clip-rule="evenodd" d="M9.375 18C9.375 17.3787 9.87868 16.875 10.5 16.875H18C18.6213 16.875 19.125 17.3787 19.125 18C19.125 18.6213 18.6213 19.125 18 19.125H10.5C9.87868 19.125 9.375 18.6213 9.375 18Z" fill="#49C6E5"/>
</svg>
