<svg width="36" height="36" viewBox="0 0 36 36" fill="none" xmlns="http://www.w3.org/2000/svg">
<path opacity="0.4" d="M4.54939 15L31.4506 15C32.9808 15 33.5816 12.9729 32.3085 12.1059L19.7157 3.53063C18.6768 2.82312 17.3232 2.82312 16.2843 3.53063L3.69152 12.1059C2.41835 12.9729 3.01923 15 4.54939 15Z" fill="#49C6E5"/>
<rect x="9" y="15" width="6" height="12" fill="#49C6E5"/>
<rect x="21" y="15" width="6" height="12" fill="#49C6E5"/>
<path opacity="0.4" d="M29.073 27C29.6412 27 30.1606 27.321 30.4147 27.8292L31.9147 30.8292C32.4133 31.8265 31.6881 33 30.573 33L5.42712 33C4.31204 33 3.5868 31.8265 4.08548 30.8292L5.58548 27.8292C5.83956 27.321 6.35896 27 6.92712 27L29.073 27Z" fill="#49C6E5"/>
</svg>
