<svg width="36" height="36" viewBox="0 0 36 36" fill="none" xmlns="http://www.w3.org/2000/svg">
<path opacity="0.4" fill-rule="evenodd" clip-rule="evenodd" d="M27.7955 11.2045C28.2348 11.6438 28.2348 12.3562 27.7955 12.7955L23.2955 17.2955C22.8562 17.7348 22.1438 17.7348 21.7045 17.2955C21.2652 16.8562 21.2652 16.1438 21.7045 15.7045L24.284 13.125L9 13.125C8.37868 13.125 7.875 12.6213 7.875 12C7.875 11.3787 8.37868 10.875 9 10.875L24.284 10.875L21.7045 8.29549C21.2652 7.85616 21.2652 7.14384 21.7045 6.7045C22.1438 6.26516 22.8562 6.26516 23.2955 6.7045L27.7955 11.2045Z" fill="#49C6E5"/>
<path fill-rule="evenodd" clip-rule="evenodd" d="M8.20451 24.7955C7.76517 24.3562 7.76517 23.6438 8.20451 23.2045L12.7045 18.7045C13.1438 18.2652 13.8562 18.2652 14.2955 18.7045C14.7348 19.1438 14.7348 19.8562 14.2955 20.2955L11.716 22.875L27 22.875C27.6213 22.875 28.125 23.3787 28.125 24C28.125 24.6213 27.6213 25.125 27 25.125L11.716 25.125L14.2955 27.7045C14.7348 28.1438 14.7348 28.8562 14.2955 29.2955C13.8562 29.7348 13.1438 29.7348 12.7045 29.2955L8.20451 24.7955Z" fill="#49C6E5"/>
</svg>
